<?xml version="1.0" encoding="utf-8"?>
<svg version="1.1" id="Ebene_1" xmlns="http://www.w3.org/2000/svg" xmlns:xlink="http://www.w3.org/1999/xlink" 
     width="100%" height="100%" viewBox="0 0 587.31 388.71" preserveAspectRatio="xMidYMid meet">
<style type="text/css">
    .st0{fill:#1D1D1B;}
    .st1{fill:none;stroke:#000000;stroke-width:12;stroke-linecap:round;stroke-miterlimit:10;}
    .st2{fill:none;stroke:#000000;stroke-width:12;stroke-linecap:round;stroke-miterlimit:10;stroke-dasharray:0,16.8604;}
    .st3{fill:none;stroke:#000000;stroke-width:12;stroke-linecap:round;stroke-miterlimit:10;stroke-dasharray:0,17.2433;}
    .st4{fill:none;stroke:#000000;stroke-width:8;stroke-miterlimit:10;}
    .st5{fill:#FFFFFF;}
    .st6{opacity:0.9;clip-path:url(#SVGID_00000155130435286895253240000004682104379893360306_);}
    .st7{fill:#2495CF;}
    .st8{fill:#D8E037;}
    .st9{fill:#4F5659;}
    .st10{fill:#FF5555;}
    .st17{enable-background:new;}
</style>
<g id="g3379">
    <g>
        <defs>
            <polygon id="SVGID_1" points="112.12,105.56 269.04,105.56 269.04,291.57 112.12,291.57 112.12,105.56"/>
        </defs>
        <clipPath id="SVGID_2">
            <use xlink:href="#SVGID_1" style="overflow:visible;"/>
        </clipPath>
        <g style="opacity:0.9;clip-path:url(#SVGID_2);">
            <g transform="translate(420.3984,300.5264)">
                <path class="st7" d="M-215.3-24.98c-42.43,0-76.97-34.54-76.97-76.99c0-42.45,34.54-76.99,76.97-76.99
                c19.71,0,38.28,7.36,52.61,20.76l11.33-11.32c-17.34-16.42-39.94-25.44-63.94-25.44c-51.27,0-92.98,41.72-92.98,93
                s41.71,93.01,92.98,93.01c24,0,46.6-9.01,63.93-25.44l-11.34-11.32C-177.01-32.33-195.58-24.98-215.3-24.98"/>
            </g>
        </g>
    </g>
</g>
<g>
    <path class="st9" d="M284.44,283.41L284.44,283.41c-20.83,19.57-48.86,31.56-79.7,31.56c-64.29,0-116.4-52.12-116.4-116.4
    c0-64.29,52.11-116.4,116.4-116.4c30.67,0,58.57,11.86,79.36,31.25l0,0l12.05-13.3c-23.98-22.27-56.1-35.89-91.41-35.89
    c-74.2,0-134.35,60.15-134.35,134.35c0,74.2,60.15,134.35,134.35,134.35c35.47,0,67.72-13.74,91.73-36.19c0,0,0,0,0.01-0.01
    L284.44,283.41z"/>
</g>
<g class="st17">
    <path class="st10" d="M223.61,209.28l9.38,2.37c-1.97,7.7-5.5,13.58-10.61,17.62c-5.11,4.04-11.35,6.07-18.73,6.07
    c-7.64,0-13.85-1.55-18.63-4.66c-4.79-3.11-8.43-7.61-10.92-13.51c-2.5-5.9-3.75-12.23-3.75-19c0-7.38,1.41-13.82,4.23-19.31
    c2.82-5.49,6.83-9.67,12.04-12.52c5.2-2.85,10.93-4.28,17.18-4.28c7.09,0,13.05,1.81,17.89,5.41c4.83,3.61,8.2,8.69,10.1,15.23
    l-9.23,2.18c-1.64-5.16-4.03-8.91-7.15-11.26c-3.13-2.35-7.06-3.53-11.79-3.53c-5.45,0-10,1.31-13.66,3.92
    c-3.66,2.61-6.23,6.12-7.71,10.51c-1.48,4.4-2.22,8.94-2.22,13.61c0,6.03,0.88,11.29,2.63,15.78c1.76,4.5,4.49,7.86,8.19,10.08
    c3.71,2.22,7.72,3.34,12.04,3.34c5.25,0,9.7-1.51,13.34-4.54C219.85,219.74,222.32,215.24,223.61,209.28z"/>
</g>
</svg>
